<?xml version="1.0" encoding="UTF-8" standalone="no"?>
<!-- Created with Inkscape (http://www.inkscape.org/) -->

<svg
   xmlns:dc="http://purl.org/dc/elements/1.1/"
   xmlns:cc="http://creativecommons.org/ns#"
   xmlns:rdf="http://www.w3.org/1999/02/22-rdf-syntax-ns#"
   xmlns:svg="http://www.w3.org/2000/svg"
   xmlns="http://www.w3.org/2000/svg"
   xmlns:sodipodi="http://sodipodi.sourceforge.net/DTD/sodipodi-0.dtd"
   xmlns:inkscape="http://www.inkscape.org/namespaces/inkscape"
   width="210mm"
   height="297mm"
   viewBox="0 0 210 297"
   version="1.1"
   id="svg8"
   inkscape:version="0.92.4 5da689c313, 2019-01-14"
   sodipodi:docname="home_icons.svg">
  <defs
     id="defs2">
    <inkscape:perspective
       sodipodi:type="inkscape:persp3d"
       inkscape:vp_x="128.28937 : 114.2895 : 1"
       inkscape:vp_y="0 : 1000 : 0"
       inkscape:vp_z="210 : 148.5 : 1"
       inkscape:persp3d-origin="105 : 99 : 1"
       id="perspective966" />
  </defs>
  <sodipodi:namedview
     id="base"
     pagecolor="#ffffff"
     bordercolor="#666666"
     borderopacity="1.0"
     inkscape:pageopacity="0.0"
     inkscape:pageshadow="2"
     inkscape:zoom="0.175"
     inkscape:cx="-130.22485"
     inkscape:cy="1023.9264"
     inkscape:document-units="mm"
     inkscape:current-layer="layer1"
     showgrid="false"
     inkscape:window-width="1366"
     inkscape:window-height="712"
     inkscape:window-x="0"
     inkscape:window-y="28"
     inkscape:window-maximized="1" />
  <metadata
     id="metadata5">
    <rdf:RDF>
      <cc:Work
         rdf:about="">
        <dc:format>image/svg+xml</dc:format>
        <dc:type
           rdf:resource="http://purl.org/dc/dcmitype/StillImage" />
        <dc:title />
      </cc:Work>
    </rdf:RDF>
  </metadata>
  <g
     inkscape:label="Capa 1"
     inkscape:groupmode="layer"
     id="layer1">
    <rect
       style="fill:#2c3e50;fill-opacity:1;stroke:none;stroke-width:1;stroke-linejoin:miter;stroke-miterlimit:4;stroke-dasharray:none;stroke-dashoffset:0;stroke-opacity:1;paint-order:normal"
       id="rect818"
       width="62.177082"
       height="62.36607"
       x="1.7009"
       y="57.741066"
       rx="0"
       ry="0"
       inkscape:export-xdpi="163.39999"
       inkscape:export-ydpi="163.39999" />
    <rect
       style="fill:#ecf0f1;fill-opacity:1;stroke:#8f8f8f;stroke-width:1;stroke-linejoin:bevel;stroke-miterlimit:4;stroke-dasharray:none;stroke-dashoffset:0;stroke-opacity:1;paint-order:normal"
       id="rect836"
       width="35.529762"
       height="48.569939"
       x="15.02457"
       y="64.639137"
       rx="0"
       ry="0"
       inkscape:export-xdpi="163.39999"
       inkscape:export-ydpi="163.39999" />
    <path
       style="fill:none;stroke:#464646;stroke-width:0.89999998;stroke-linecap:butt;stroke-linejoin:miter;stroke-miterlimit:4;stroke-dasharray:none;stroke-opacity:1"
       d="m 20.505225,70.233187 h 24.56846"
       id="path838"
       inkscape:connector-curvature="0"
       inkscape:export-xdpi="163.39999"
       inkscape:export-ydpi="163.39999" />
    <path
       inkscape:connector-curvature="0"
       id="path840"
       d="m 20.505225,75.524854 h 24.56846"
       style="fill:none;stroke:#464646;stroke-width:0.89999998;stroke-linecap:butt;stroke-linejoin:miter;stroke-miterlimit:4;stroke-dasharray:none;stroke-opacity:1"
       inkscape:export-xdpi="163.39999"
       inkscape:export-ydpi="163.39999" />
    <path
       style="fill:none;stroke:#464646;stroke-width:0.89999998;stroke-linecap:butt;stroke-linejoin:miter;stroke-miterlimit:4;stroke-dasharray:none;stroke-opacity:1"
       d="m 20.505225,80.816521 h 24.56846"
       id="path842"
       inkscape:connector-curvature="0"
       inkscape:export-xdpi="163.39999"
       inkscape:export-ydpi="163.39999" />
    <path
       inkscape:connector-curvature="0"
       id="path844"
       d="m 20.505225,86.10819 h 24.56846"
       style="fill:none;stroke:#464646;stroke-width:0.89999998;stroke-linecap:butt;stroke-linejoin:miter;stroke-miterlimit:4;stroke-dasharray:none;stroke-opacity:1"
       inkscape:export-xdpi="163.39999"
       inkscape:export-ydpi="163.39999" />
    <path
       style="fill:none;stroke:#464646;stroke-width:0.89999998;stroke-linecap:butt;stroke-linejoin:miter;stroke-miterlimit:4;stroke-dasharray:none;stroke-opacity:1"
       d="m 20.505225,91.39985 h 13.98513"
       id="path846"
       inkscape:connector-curvature="0"
       sodipodi:nodetypes="cc"
       inkscape:export-xdpi="163.39999"
       inkscape:export-ydpi="163.39999" />
    <rect
       ry="0"
       rx="0"
       y="57.741066"
       x="70.492569"
       height="62.36607"
       width="62.177082"
       id="rect940"
       style="fill:#2c3e50;fill-opacity:1;stroke:none;stroke-width:1;stroke-linejoin:miter;stroke-miterlimit:4;stroke-dasharray:none;stroke-dashoffset:0;stroke-opacity:1;paint-order:normal"
       inkscape:export-xdpi="163.39999"
       inkscape:export-ydpi="163.39999" />
    <g
       id="g1083"
       transform="translate(319.18108,19.763839)"
       inkscape:export-xdpi="163.39999"
       inkscape:export-ydpi="163.39999">
      <rect
         style="fill:#ecf0f1;fill-opacity:1;stroke:#8f8f8f;stroke-width:1;stroke-linejoin:bevel;stroke-miterlimit:4;stroke-dasharray:none;stroke-dashoffset:0;stroke-opacity:1;paint-order:normal"
         id="rect1043"
         width="8.2258797"
         height="43.087944"
         x="-240.50125"
         y="47.616295" />
      <rect
         y="47.616295"
         x="-230.3656"
         height="43.087944"
         width="8.2258797"
         id="rect1045"
         style="fill:#ecf0f1;fill-opacity:1;stroke:#8f8f8f;stroke-width:1;stroke-linejoin:bevel;stroke-miterlimit:4;stroke-dasharray:none;stroke-dashoffset:0;stroke-opacity:1;paint-order:normal" />
      <rect
         style="fill:#ecf0f1;fill-opacity:1;stroke:#8f8f8f;stroke-width:1;stroke-linejoin:bevel;stroke-miterlimit:4;stroke-dasharray:none;stroke-dashoffset:0;stroke-opacity:1;paint-order:normal"
         id="rect1047"
         width="8.2258797"
         height="43.087944"
         x="-220.22997"
         y="47.616295" />
      <rect
         transform="rotate(-15)"
         y="-6.7772617"
         x="-216.21756"
         height="43.087944"
         width="8.2258797"
         id="rect1049"
         style="fill:#ecf0f1;fill-opacity:1;stroke:#8f8f8f;stroke-width:1;stroke-linejoin:bevel;stroke-miterlimit:4;stroke-dasharray:none;stroke-dashoffset:0;stroke-opacity:1;paint-order:normal" />
    </g>
    <rect
       style="fill:#2c3e50;fill-opacity:1;stroke:none;stroke-width:1;stroke-linejoin:miter;stroke-miterlimit:4;stroke-dasharray:none;stroke-dashoffset:0;stroke-opacity:1;paint-order:normal"
       id="rect1085"
       width="62.177082"
       height="62.36607"
       x="144.57597"
       y="57.741066"
       rx="0"
       ry="0"
       inkscape:export-xdpi="163.39999"
       inkscape:export-ydpi="163.39999" />
    <path
       inkscape:connector-curvature="0"
       d="m 159.6016,64.654292 c -0.12209,0.0814 -0.22385,0.264554 -0.22385,0.386655 0,0.142453 0.37673,0.773809 0.85521,1.466217 1.55755,2.20925 2.19883,3.512167 2.19883,4.418005 0,1.323266 -1.56747,2.809833 -3.47147,3.29824 -1.64936,0.427357 -2.62668,-0.254627 -4.06162,-2.81976 -1.17089,-2.076725 -1.88316,-2.697658 -2.44304,-2.107003 -0.26455,0.295328 -0.74303,1.557544 -0.96688,2.565134 -0.14245,0.620933 -0.16281,1.109836 -0.13253,2.188899 0.0407,1.211589 0.0918,1.506918 0.37673,2.331352 0.35638,1.058715 0.65171,1.618597 1.30292,2.473807 1.31334,1.740695 3.26796,2.840109 5.02901,2.840109 0.31568,0 1.18082,-0.112175 1.92385,-0.254627 1.52677,-0.284905 1.62902,-0.295328 2.1889,-0.142451 0.35638,0.09183 1.78139,1.476141 10.6179,10.302225 5.61868,5.609242 10.28089,10.322576 10.36229,10.475456 0.22385,0.42735 0.17322,1.35404 -0.1628,2.62668 -0.62094,2.3924 -0.28491,3.82784 1.29298,5.49707 1.5372,1.62901 4.16338,2.91158 6.38306,3.11508 0.87555,0.0814 1.28256,-0.0814 1.28256,-0.50876 0,-0.13252 -0.30526,-0.67205 -0.68199,-1.19123 -2.18889,-3.09474 -2.718,-4.44878 -2.16854,-5.60925 0.4482,-0.96689 1.53719,-1.81217 2.92151,-2.28023 1.79182,-0.60058 2.93193,0.0407 4.19415,2.36163 0.76339,1.37439 1.27264,2.11743 1.66922,2.43311 0.67206,0.49883 1.00809,0.27497 1.49649,-0.98724 0.50876,-1.31334 0.64129,-2.17848 0.59066,-3.74645 -0.0407,-1.21158 -0.0913,-1.49649 -0.38666,-2.37205 -0.66163,-1.974971 -2.23952,-3.848195 -3.90924,-4.652281 -1.46572,-0.692406 -2.29065,-0.753457 -4.42843,-0.345954 -1.21158,0.244204 -1.45579,0.254627 -1.9442,0.152874 l -0.55988,-0.112173 -10.2104,-10.200971 c -5.61917,-5.619171 -10.28187,-10.332504 -10.36328,-10.48538 -0.22385,-0.437779 -0.17322,-1.37439 0.1628,-2.656956 0.38666,-1.486567 0.39708,-2.38198 0.0611,-3.338942 -0.57031,-1.629018 -2.07673,-3.135438 -4.18423,-4.183728 -1.7407,-0.865633 -4.04127,-1.344114 -4.61109,-0.937107 z"
       id="path4"
       style="fill:#ecf0f1;fill-opacity:1;stroke:#8f8f8f;stroke-width:1.87596595;stroke-miterlimit:4;stroke-dasharray:none;stroke-opacity:1"
       inkscape:export-xdpi="163.39999"
       inkscape:export-ydpi="163.39999" />
  </g>
</svg>
